<svg aria-roledescription="er" viewBox="0 0 467.0413513183594 320" style="max-width: 467.041px; background-color: white;" xmlns:xlink="http://www.w3.org/1999/xlink" xmlns="http://www.w3.org/2000/svg" width="100%" id="mermaid-0"><style>#mermaid-0{font-family:"trebuchet ms",verdana,arial,sans-serif;font-size:16px;fill:#000000;}#mermaid-0 .error-icon{fill:#552222;}#mermaid-0 .error-text{fill:#552222;stroke:#552222;}#mermaid-0 .edge-thickness-normal{stroke-width:2px;}#mermaid-0 .edge-thickness-thick{stroke-width:3.5px;}#mermaid-0 .edge-pattern-solid{stroke-dasharray:0;}#mermaid-0 .edge-pattern-dashed{stroke-dasharray:3;}#mermaid-0 .edge-pattern-dotted{stroke-dasharray:2;}#mermaid-0 .marker{fill:#000000;stroke:#000000;}#mermaid-0 .marker.cross{stroke:#000000;}#mermaid-0 svg{font-family:"trebuchet ms",verdana,arial,sans-serif;font-size:16px;}#mermaid-0 .entityBox{fill:#cde498;stroke:#13540c;}#mermaid-0 .attributeBoxOdd{fill:#ffffff;stroke:#13540c;}#mermaid-0 .attributeBoxEven{fill:#f2f2f2;stroke:#13540c;}#mermaid-0 .relationshipLabelBox{fill:hsl(78.1578947368, 58.4615384615%, 84.5098039216%);opacity:0.7;background-color:hsl(78.1578947368, 58.4615384615%, 84.5098039216%);}#mermaid-0 .relationshipLabelBox rect{opacity:0.5;}#mermaid-0 .relationshipLine{stroke:#000000;}#mermaid-0 .entityTitleText{text-anchor:middle;font-size:18px;fill:#000000;}#mermaid-0 :root{--mermaid-font-family:"trebuchet ms",verdana,arial,sans-serif;}</style><g/><defs><marker orient="auto" markerHeight="18" markerWidth="18" refY="9" refX="0" id="ONLY_ONE_START"><path d="M9,0 L9,18 M15,0 L15,18" fill="none" stroke="gray"/></marker></defs><defs><marker orient="auto" markerHeight="18" markerWidth="18" refY="9" refX="18" id="ONLY_ONE_END"><path d="M3,0 L3,18 M9,0 L9,18" fill="none" stroke="gray"/></marker></defs><defs><marker orient="auto" markerHeight="18" markerWidth="30" refY="9" refX="0" id="ZERO_OR_ONE_START"><circle r="6" cy="9" cx="21" fill="white" stroke="gray"/><path d="M9,0 L9,18" fill="none" stroke="gray"/></marker></defs><defs><marker orient="auto" markerHeight="18" markerWidth="30" refY="9" refX="30" id="ZERO_OR_ONE_END"><circle r="6" cy="9" cx="9" fill="white" stroke="gray"/><path d="M21,0 L21,18" fill="none" stroke="gray"/></marker></defs><defs><marker orient="auto" markerHeight="36" markerWidth="45" refY="18" refX="18" id="ONE_OR_MORE_START"><path d="M0,18 Q 18,0 36,18 Q 18,36 0,18 M42,9 L42,27" fill="none" stroke="gray"/></marker></defs><defs><marker orient="auto" markerHeight="36" markerWidth="45" refY="18" refX="27" id="ONE_OR_MORE_END"><path d="M3,9 L3,27 M9,18 Q27,0 45,18 Q27,36 9,18" fill="none" stroke="gray"/></marker></defs><defs><marker orient="auto" markerHeight="36" markerWidth="57" refY="18" refX="18" id="ZERO_OR_MORE_START"><circle r="6" cy="18" cx="48" fill="white" stroke="gray"/><path d="M0,18 Q18,0 36,18 Q18,36 0,18" fill="none" stroke="gray"/></marker></defs><defs><marker orient="auto" markerHeight="36" markerWidth="57" refY="18" refX="39" id="ZERO_OR_MORE_END"><circle r="6" cy="18" cx="9" fill="white" stroke="gray"/><path d="M21,18 Q39,0 57,18 Q39,36 21,18" fill="none" stroke="gray"/></marker></defs><path style="stroke: gray; fill: none;" marker-start="url(#ZERO_OR_MORE_START)" marker-end="url(#ONLY_ONE_END)" d="M316.86340396278786,88L302.8913783023232,100C288.91935264185855,112,260.9753013209293,136,237.85031513414881,156.33333333333334C214.7253289473684,176.66666666666666,196.41940789473685,193.33333333333334,187.26644736842104,201.66666666666666L178.11348684210526,210" class="er relationshipLine"/><path style="stroke: gray; fill: none;" marker-start="url(#ZERO_OR_MORE_START)" marker-end="url(#ONLY_ONE_END)" d="M355.74838296990646,88L362.0641724435907,100C368.3799619172749,112,381.01154086464334,136,387.32733033832756,158.16666666666666C393.6431198120117,180.33333333333334,393.6431198120117,200.66666666666666,393.6431198120117,210.83333333333334L393.6431198120117,221" class="er relationshipLine"/><path style="stroke: gray; fill: none;" marker-start="url(#ZERO_OR_MORE_START)" marker-end="url(#ONLY_ONE_END)" d="M78.6875,110L78.6875,118.33333333333333C78.6875,126.66666666666667,78.6875,143.33333333333334,83.0734649122807,160C87.45942982456141,176.66666666666666,96.23135964912281,193.33333333333334,100.6173245614035,201.66666666666666L105.0032894736842,210" class="er relationshipLine"/><g transform="translate(60.86199951171875,210 )" id="entity-habits-6d23ac47-f73e-4bc4-b7bc-214464545617"><rect height="90" width="135.6510009765625" y="0" x="0" class="er entityBox"/><text style="dominant-baseline: middle; text-anchor: middle; font-size: 12px;" transform="translate(67.82550048828125,12)" y="0" x="0" id="text-entity-habits-6d23ac47-f73e-4bc4-b7bc-214464545617" class="er entityLabel">habits</text><rect height="22" width="54.04840087890625" y="24" x="0" class="er attributeBoxOdd"/><text style="dominant-baseline: middle; font-size: 10.2px;" transform="translate(5,35)" y="0" x="0" id="text-entity-habits-6d23ac47-f73e-4bc4-b7bc-214464545617-attr-1-type" class="er entityLabel">String</text><rect height="22" width="59.921875" y="24" x="54.04840087890625" class="er attributeBoxOdd"/><text style="dominant-baseline: middle; font-size: 10.2px;" transform="translate(59.04840087890625,35)" y="0" x="0" id="text-entity-habits-6d23ac47-f73e-4bc4-b7bc-214464545617-attr-1-name" class="er entityLabel">id</text><rect height="22" width="21.68072509765625" y="24" x="113.97027587890625" class="er attributeBoxOdd"/><text style="dominant-baseline: middle; font-size: 10.2px;" transform="translate(118.97027587890625,35)" y="0" x="0" id="text-entity-habits-6d23ac47-f73e-4bc4-b7bc-214464545617-attr-1-key" class="er entityLabel">PK</text><rect height="22" width="54.04840087890625" y="46" x="0" class="er attributeBoxEven"/><text style="dominant-baseline: middle; font-size: 10.2px;" transform="translate(5,57)" y="0" x="0" id="text-entity-habits-6d23ac47-f73e-4bc4-b7bc-214464545617-attr-2-type" class="er entityLabel">String</text><rect height="22" width="59.921875" y="46" x="54.04840087890625" class="er attributeBoxEven"/><text style="dominant-baseline: middle; font-size: 10.2px;" transform="translate(59.04840087890625,57)" y="0" x="0" id="text-entity-habits-6d23ac47-f73e-4bc4-b7bc-214464545617-attr-2-name" class="er entityLabel">title</text><rect height="22" width="21.68072509765625" y="46" x="113.97027587890625" class="er attributeBoxEven"/><text style="dominant-baseline: middle; font-size: 10.2px;" transform="translate(118.97027587890625,57)" y="0" x="0" id="text-entity-habits-6d23ac47-f73e-4bc4-b7bc-214464545617-attr-2-key" class="er entityLabel"/><rect height="22" width="54.04840087890625" y="68" x="0" class="er attributeBoxOdd"/><text style="dominant-baseline: middle; font-size: 10.2px;" transform="translate(5,79)" y="0" x="0" id="text-entity-habits-6d23ac47-f73e-4bc4-b7bc-214464545617-attr-3-type" class="er entityLabel">DateTime</text><rect height="22" width="59.921875" y="68" x="54.04840087890625" class="er attributeBoxOdd"/><text style="dominant-baseline: middle; font-size: 10.2px;" transform="translate(59.04840087890625,79)" y="0" x="0" id="text-entity-habits-6d23ac47-f73e-4bc4-b7bc-214464545617-attr-3-name" class="er entityLabel">created_at</text><rect height="22" width="21.68072509765625" y="68" x="113.97027587890625" class="er attributeBoxOdd"/><text style="dominant-baseline: middle; font-size: 10.2px;" transform="translate(118.97027587890625,79)" y="0" x="0" id="text-entity-habits-6d23ac47-f73e-4bc4-b7bc-214464545617-attr-3-key" class="er entityLabel"/></g><g transform="translate(340.24488067626953,221 )" id="entity-days-83c6a96c-d389-4798-bbd7-fa05ac62618e"><rect height="68" width="106.79647827148438" y="0" x="0" class="er entityBox"/><text style="dominant-baseline: middle; text-anchor: middle; font-size: 12px;" transform="translate(53.39823913574219,12)" y="0" x="0" id="text-entity-days-83c6a96c-d389-4798-bbd7-fa05ac62618e" class="er entityLabel">days</text><rect height="22" width="54.04840087890625" y="24" x="0" class="er attributeBoxOdd"/><text style="dominant-baseline: middle; font-size: 10.2px;" transform="translate(5,35)" y="0" x="0" id="text-entity-days-83c6a96c-d389-4798-bbd7-fa05ac62618e-attr-1-type" class="er entityLabel">String</text><rect height="22" width="31.067352294921875" y="24" x="54.04840087890625" class="er attributeBoxOdd"/><text style="dominant-baseline: middle; font-size: 10.2px;" transform="translate(59.04840087890625,35)" y="0" x="0" id="text-entity-days-83c6a96c-d389-4798-bbd7-fa05ac62618e-attr-1-name" class="er entityLabel">id</text><rect height="22" width="21.68072509765625" y="24" x="85.11575317382812" class="er attributeBoxOdd"/><text style="dominant-baseline: middle; font-size: 10.2px;" transform="translate(90.11575317382812,35)" y="0" x="0" id="text-entity-days-83c6a96c-d389-4798-bbd7-fa05ac62618e-attr-1-key" class="er entityLabel">PK</text><rect height="22" width="54.04840087890625" y="46" x="0" class="er attributeBoxEven"/><text style="dominant-baseline: middle; font-size: 10.2px;" transform="translate(5,57)" y="0" x="0" id="text-entity-days-83c6a96c-d389-4798-bbd7-fa05ac62618e-attr-2-type" class="er entityLabel">DateTime</text><rect height="22" width="31.067352294921875" y="46" x="54.04840087890625" class="er attributeBoxEven"/><text style="dominant-baseline: middle; font-size: 10.2px;" transform="translate(59.04840087890625,57)" y="0" x="0" id="text-entity-days-83c6a96c-d389-4798-bbd7-fa05ac62618e-attr-2-name" class="er entityLabel">date</text><rect height="22" width="21.68072509765625" y="46" x="85.11575317382812" class="er attributeBoxEven"/><text style="dominant-baseline: middle; font-size: 10.2px;" transform="translate(90.11575317382812,57)" y="0" x="0" id="text-entity-days-83c6a96c-d389-4798-bbd7-fa05ac62618e-attr-2-key" class="er entityLabel"/></g><g transform="translate(293.6431198120117,42 )" id="entity-habitsdays-c975b9d1-8ae5-425f-815e-9969b724f1a7"><rect height="46" width="100" y="0" x="0" class="er entityBox"/><text style="dominant-baseline: middle; text-anchor: middle; font-size: 12px;" transform="translate(50,12)" y="0" x="0" id="text-entity-habitsdays-c975b9d1-8ae5-425f-815e-9969b724f1a7" class="er entityLabel">habits_days</text><rect height="22" width="44.231424967447914" y="24" x="0" class="er attributeBoxOdd"/><text style="dominant-baseline: middle; font-size: 10.2px;" transform="translate(5,35)" y="0" x="0" id="text-entity-habitsdays-c975b9d1-8ae5-425f-815e-9969b724f1a7-attr-1-type" class="er entityLabel">String</text><rect height="22" width="26.340799967447918" y="24" x="44.231424967447914" class="er attributeBoxOdd"/><text style="dominant-baseline: middle; font-size: 10.2px;" transform="translate(49.231424967447914,35)" y="0" x="0" id="text-entity-habitsdays-c975b9d1-8ae5-425f-815e-9969b724f1a7-attr-1-name" class="er entityLabel">id</text><rect height="22" width="29.427775065104168" y="24" x="70.57222493489583" class="er attributeBoxOdd"/><text style="dominant-baseline: middle; font-size: 10.2px;" transform="translate(75.57222493489583,35)" y="0" x="0" id="text-entity-habitsdays-c975b9d1-8ae5-425f-815e-9969b724f1a7-attr-1-key" class="er entityLabel">PK</text></g><g transform="translate(20,20 )" id="entity-habitweekday-95c49534-dec3-419b-ae1b-fd47bddd385c"><rect height="90" width="117.375" y="0" x="0" class="er entityBox"/><text style="dominant-baseline: middle; text-anchor: middle; font-size: 12px;" transform="translate(58.6875,12)" y="0" x="0" id="text-entity-habitweekday-95c49534-dec3-419b-ae1b-fd47bddd385c" class="er entityLabel">habit_week_day</text><rect height="22" width="37.809549967447914" y="24" x="0" class="er attributeBoxOdd"/><text style="dominant-baseline: middle; font-size: 10.2px;" transform="translate(5,35)" y="0" x="0" id="text-entity-habitweekday-95c49534-dec3-419b-ae1b-fd47bddd385c-attr-1-type" class="er entityLabel">String</text><rect height="22" width="56.559549967447914" y="24" x="37.809549967447914" class="er attributeBoxOdd"/><text style="dominant-baseline: middle; font-size: 10.2px;" transform="translate(42.809549967447914,35)" y="0" x="0" id="text-entity-habitweekday-95c49534-dec3-419b-ae1b-fd47bddd385c-attr-1-name" class="er entityLabel">id</text><rect height="22" width="23.005900065104168" y="24" x="94.36909993489583" class="er attributeBoxOdd"/><text style="dominant-baseline: middle; font-size: 10.2px;" transform="translate(99.36909993489583,35)" y="0" x="0" id="text-entity-habitweekday-95c49534-dec3-419b-ae1b-fd47bddd385c-attr-1-key" class="er entityLabel">PK</text><rect height="22" width="37.809549967447914" y="46" x="0" class="er attributeBoxEven"/><text style="dominant-baseline: middle; font-size: 10.2px;" transform="translate(5,57)" y="0" x="0" id="text-entity-habitweekday-95c49534-dec3-419b-ae1b-fd47bddd385c-attr-2-type" class="er entityLabel">Int</text><rect height="22" width="56.559549967447914" y="46" x="37.809549967447914" class="er attributeBoxEven"/><text style="dominant-baseline: middle; font-size: 10.2px;" transform="translate(42.809549967447914,57)" y="0" x="0" id="text-entity-habitweekday-95c49534-dec3-419b-ae1b-fd47bddd385c-attr-2-name" class="er entityLabel">week_day</text><rect height="22" width="23.005900065104168" y="46" x="94.36909993489583" class="er attributeBoxEven"/><text style="dominant-baseline: middle; font-size: 10.2px;" transform="translate(99.36909993489583,57)" y="0" x="0" id="text-entity-habitweekday-95c49534-dec3-419b-ae1b-fd47bddd385c-attr-2-key" class="er entityLabel"/><rect height="22" width="37.809549967447914" y="68" x="0" class="er attributeBoxOdd"/><text style="dominant-baseline: middle; font-size: 10.2px;" transform="translate(5,79)" y="0" x="0" id="text-entity-habitweekday-95c49534-dec3-419b-ae1b-fd47bddd385c-attr-3-type" class="er entityLabel">String</text><rect height="22" width="56.559549967447914" y="68" x="37.809549967447914" class="er attributeBoxOdd"/><text style="dominant-baseline: middle; font-size: 10.2px;" transform="translate(42.809549967447914,79)" y="0" x="0" id="text-entity-habitweekday-95c49534-dec3-419b-ae1b-fd47bddd385c-attr-3-name" class="er entityLabel">habit_id</text><rect height="22" width="23.005900065104168" y="68" x="94.36909993489583" class="er attributeBoxOdd"/><text style="dominant-baseline: middle; font-size: 10.2px;" transform="translate(99.36909993489583,79)" y="0" x="0" id="text-entity-habitweekday-95c49534-dec3-419b-ae1b-fd47bddd385c-attr-3-key" class="er entityLabel"/></g><rect height="14" width="27.96875" y="141.3718719482422" x="232.9506072998047" class="er relationshipLabelBox"/><text style="text-anchor: middle; dominant-baseline: middle; font-size: 12px;" y="148.3718719482422" x="246.9349822998047" id="rel1" class="er relationshipLabel">habit</text><rect height="14" width="18.990234375" y="144.62586975097656" x="375.81036376953125" class="er relationshipLabelBox"/><text style="text-anchor: middle; dominant-baseline: middle; font-size: 12px;" y="151.62586975097656" x="385.30548095703125" id="rel2" class="er relationshipLabel">day</text><rect height="14" width="27.96875" y="155.108642578125" x="69.6670913696289" class="er relationshipLabelBox"/><text style="text-anchor: middle; dominant-baseline: middle; font-size: 12px;" y="162.108642578125" x="83.6514663696289" id="rel3" class="er relationshipLabel">habit</text></svg>