<svg aria-roledescription="er" viewBox="0 0 468.4498291015625 320" style="max-width: 468.45px; background-color: white;" xmlns:xlink="http://www.w3.org/1999/xlink" xmlns="http://www.w3.org/2000/svg" width="100%" id="mermaid-0"><style>#mermaid-0{font-family:"trebuchet ms",verdana,arial,sans-serif;font-size:16px;fill:#000000;}#mermaid-0 .error-icon{fill:#552222;}#mermaid-0 .error-text{fill:#552222;stroke:#552222;}#mermaid-0 .edge-thickness-normal{stroke-width:2px;}#mermaid-0 .edge-thickness-thick{stroke-width:3.5px;}#mermaid-0 .edge-pattern-solid{stroke-dasharray:0;}#mermaid-0 .edge-pattern-dashed{stroke-dasharray:3;}#mermaid-0 .edge-pattern-dotted{stroke-dasharray:2;}#mermaid-0 .marker{fill:#000000;stroke:#000000;}#mermaid-0 .marker.cross{stroke:#000000;}#mermaid-0 svg{font-family:"trebuchet ms",verdana,arial,sans-serif;font-size:16px;}#mermaid-0 .entityBox{fill:#cde498;stroke:#13540c;}#mermaid-0 .attributeBoxOdd{fill:#ffffff;stroke:#13540c;}#mermaid-0 .attributeBoxEven{fill:#f2f2f2;stroke:#13540c;}#mermaid-0 .relationshipLabelBox{fill:hsl(78.1578947368, 58.4615384615%, 84.5098039216%);opacity:0.7;background-color:hsl(78.1578947368, 58.4615384615%, 84.5098039216%);}#mermaid-0 .relationshipLabelBox rect{opacity:0.5;}#mermaid-0 .relationshipLine{stroke:#000000;}#mermaid-0 .entityTitleText{text-anchor:middle;font-size:18px;fill:#000000;}#mermaid-0 :root{--mermaid-font-family:"trebuchet ms",verdana,arial,sans-serif;}</style><g/><defs><marker orient="auto" markerHeight="18" markerWidth="18" refY="9" refX="0" id="ONLY_ONE_START"><path d="M9,0 L9,18 M15,0 L15,18" fill="none" stroke="gray"/></marker></defs><defs><marker orient="auto" markerHeight="18" markerWidth="18" refY="9" refX="18" id="ONLY_ONE_END"><path d="M3,0 L3,18 M9,0 L9,18" fill="none" stroke="gray"/></marker></defs><defs><marker orient="auto" markerHeight="18" markerWidth="30" refY="9" refX="0" id="ZERO_OR_ONE_START"><circle r="6" cy="9" cx="21" fill="white" stroke="gray"/><path d="M9,0 L9,18" fill="none" stroke="gray"/></marker></defs><defs><marker orient="auto" markerHeight="18" markerWidth="30" refY="9" refX="30" id="ZERO_OR_ONE_END"><circle r="6" cy="9" cx="9" fill="white" stroke="gray"/><path d="M21,0 L21,18" fill="none" stroke="gray"/></marker></defs><defs><marker orient="auto" markerHeight="36" markerWidth="45" refY="18" refX="18" id="ONE_OR_MORE_START"><path d="M0,18 Q 18,0 36,18 Q 18,36 0,18 M42,9 L42,27" fill="none" stroke="gray"/></marker></defs><defs><marker orient="auto" markerHeight="36" markerWidth="45" refY="18" refX="27" id="ONE_OR_MORE_END"><path d="M3,9 L3,27 M9,18 Q27,0 45,18 Q27,36 9,18" fill="none" stroke="gray"/></marker></defs><defs><marker orient="auto" markerHeight="36" markerWidth="57" refY="18" refX="18" id="ZERO_OR_MORE_START"><circle r="6" cy="18" cx="48" fill="white" stroke="gray"/><path d="M0,18 Q18,0 36,18 Q18,36 0,18" fill="none" stroke="gray"/></marker></defs><defs><marker orient="auto" markerHeight="36" markerWidth="57" refY="18" refX="39" id="ZERO_OR_MORE_END"><circle r="6" cy="18" cx="9" fill="white" stroke="gray"/><path d="M21,18 Q39,0 57,18 Q39,36 21,18" fill="none" stroke="gray"/></marker></defs><path style="stroke: gray; fill: none;" marker-start="url(#ZERO_OR_MORE_START)" marker-end="url(#ONLY_ONE_END)" d="M292.6564861096834,110L282.9536905121385,118.33333333333333C273.25089491459363,126.66666666666667,253.84530371950382,143.33333333333334,234.8659982513963,160C215.8866927832888,176.66666666666666,197.3336730421635,193.33333333333334,188.05716317160088,201.66666666666666L178.78065330103823,210" class="er relationshipLine"/><path style="stroke: gray; fill: none;" marker-start="url(#ZERO_OR_MORE_START)" marker-end="url(#ONLY_ONE_END)" d="M368.73579286274156,110L373.12175777502233,118.33333333333333C377.507722687303,126.66666666666667,386.2796525118644,143.33333333333334,390.66561742414507,161.83333333333334C395.0515823364258,180.33333333333334,395.0515823364258,200.66666666666666,395.0515823364258,210.83333333333334L395.0515823364258,221" class="er relationshipLine"/><path style="stroke: gray; fill: none;" marker-start="url(#ZERO_OR_MORE_START)" marker-end="url(#ONLY_ONE_END)" d="M78.6875,110L78.6875,118.33333333333333C78.6875,126.66666666666667,78.6875,143.33333333333334,83.0734649122807,160C87.45942982456141,176.66666666666666,96.23135964912281,193.33333333333334,100.6173245614035,201.66666666666666L105.0032894736842,210" class="er relationshipLine"/><g transform="translate(60.86199951171875,210 )" id="entity-habits-50abf471-93e2-4df0-9a78-22f6047309e8"><rect height="90" width="135.6510009765625" y="0" x="0" class="er entityBox"/><text style="dominant-baseline: middle; text-anchor: middle; font-size: 12px;" transform="translate(67.82550048828125,12)" y="0" x="0" id="text-entity-habits-50abf471-93e2-4df0-9a78-22f6047309e8" class="er entityLabel">habits</text><rect height="22" width="54.04840087890625" y="24" x="0" class="er attributeBoxOdd"/><text style="dominant-baseline: middle; font-size: 10.2px;" transform="translate(5,35)" y="0" x="0" id="text-entity-habits-50abf471-93e2-4df0-9a78-22f6047309e8-attr-1-type" class="er entityLabel">String</text><rect height="22" width="59.921875" y="24" x="54.04840087890625" class="er attributeBoxOdd"/><text style="dominant-baseline: middle; font-size: 10.2px;" transform="translate(59.04840087890625,35)" y="0" x="0" id="text-entity-habits-50abf471-93e2-4df0-9a78-22f6047309e8-attr-1-name" class="er entityLabel">id</text><rect height="22" width="21.68072509765625" y="24" x="113.97027587890625" class="er attributeBoxOdd"/><text style="dominant-baseline: middle; font-size: 10.2px;" transform="translate(118.97027587890625,35)" y="0" x="0" id="text-entity-habits-50abf471-93e2-4df0-9a78-22f6047309e8-attr-1-key" class="er entityLabel">PK</text><rect height="22" width="54.04840087890625" y="46" x="0" class="er attributeBoxEven"/><text style="dominant-baseline: middle; font-size: 10.2px;" transform="translate(5,57)" y="0" x="0" id="text-entity-habits-50abf471-93e2-4df0-9a78-22f6047309e8-attr-2-type" class="er entityLabel">String</text><rect height="22" width="59.921875" y="46" x="54.04840087890625" class="er attributeBoxEven"/><text style="dominant-baseline: middle; font-size: 10.2px;" transform="translate(59.04840087890625,57)" y="0" x="0" id="text-entity-habits-50abf471-93e2-4df0-9a78-22f6047309e8-attr-2-name" class="er entityLabel">title</text><rect height="22" width="21.68072509765625" y="46" x="113.97027587890625" class="er attributeBoxEven"/><text style="dominant-baseline: middle; font-size: 10.2px;" transform="translate(118.97027587890625,57)" y="0" x="0" id="text-entity-habits-50abf471-93e2-4df0-9a78-22f6047309e8-attr-2-key" class="er entityLabel"/><rect height="22" width="54.04840087890625" y="68" x="0" class="er attributeBoxOdd"/><text style="dominant-baseline: middle; font-size: 10.2px;" transform="translate(5,79)" y="0" x="0" id="text-entity-habits-50abf471-93e2-4df0-9a78-22f6047309e8-attr-3-type" class="er entityLabel">DateTime</text><rect height="22" width="59.921875" y="68" x="54.04840087890625" class="er attributeBoxOdd"/><text style="dominant-baseline: middle; font-size: 10.2px;" transform="translate(59.04840087890625,79)" y="0" x="0" id="text-entity-habits-50abf471-93e2-4df0-9a78-22f6047309e8-attr-3-name" class="er entityLabel">created_at</text><rect height="22" width="21.68072509765625" y="68" x="113.97027587890625" class="er attributeBoxOdd"/><text style="dominant-baseline: middle; font-size: 10.2px;" transform="translate(118.97027587890625,79)" y="0" x="0" id="text-entity-habits-50abf471-93e2-4df0-9a78-22f6047309e8-attr-3-key" class="er entityLabel"/></g><g transform="translate(341.6533432006836,221 )" id="entity-days-4835fffa-8f63-4df5-b57f-b21888420d78"><rect height="68" width="106.79647827148438" y="0" x="0" class="er entityBox"/><text style="dominant-baseline: middle; text-anchor: middle; font-size: 12px;" transform="translate(53.39823913574219,12)" y="0" x="0" id="text-entity-days-4835fffa-8f63-4df5-b57f-b21888420d78" class="er entityLabel">days</text><rect height="22" width="54.04840087890625" y="24" x="0" class="er attributeBoxOdd"/><text style="dominant-baseline: middle; font-size: 10.2px;" transform="translate(5,35)" y="0" x="0" id="text-entity-days-4835fffa-8f63-4df5-b57f-b21888420d78-attr-1-type" class="er entityLabel">String</text><rect height="22" width="31.067352294921875" y="24" x="54.04840087890625" class="er attributeBoxOdd"/><text style="dominant-baseline: middle; font-size: 10.2px;" transform="translate(59.04840087890625,35)" y="0" x="0" id="text-entity-days-4835fffa-8f63-4df5-b57f-b21888420d78-attr-1-name" class="er entityLabel">id</text><rect height="22" width="21.68072509765625" y="24" x="85.11575317382812" class="er attributeBoxOdd"/><text style="dominant-baseline: middle; font-size: 10.2px;" transform="translate(90.11575317382812,35)" y="0" x="0" id="text-entity-days-4835fffa-8f63-4df5-b57f-b21888420d78-attr-1-key" class="er entityLabel">PK</text><rect height="22" width="54.04840087890625" y="46" x="0" class="er attributeBoxEven"/><text style="dominant-baseline: middle; font-size: 10.2px;" transform="translate(5,57)" y="0" x="0" id="text-entity-days-4835fffa-8f63-4df5-b57f-b21888420d78-attr-2-type" class="er entityLabel">DateTime</text><rect height="22" width="31.067352294921875" y="46" x="54.04840087890625" class="er attributeBoxEven"/><text style="dominant-baseline: middle; font-size: 10.2px;" transform="translate(59.04840087890625,57)" y="0" x="0" id="text-entity-days-4835fffa-8f63-4df5-b57f-b21888420d78-attr-2-name" class="er entityLabel">date</text><rect height="22" width="21.68072509765625" y="46" x="85.11575317382812" class="er attributeBoxEven"/><text style="dominant-baseline: middle; font-size: 10.2px;" transform="translate(90.11575317382812,57)" y="0" x="0" id="text-entity-days-4835fffa-8f63-4df5-b57f-b21888420d78-attr-2-key" class="er entityLabel"/></g><g transform="translate(292.23465728759766,20 )" id="entity-habitsdays-a0ede8fe-db72-4538-8f30-98324300b6cc"><rect height="90" width="105.63385009765625" y="0" x="0" class="er entityBox"/><text style="dominant-baseline: middle; text-anchor: middle; font-size: 12px;" transform="translate(52.816925048828125,12)" y="0" x="0" id="text-entity-habitsdays-a0ede8fe-db72-4538-8f30-98324300b6cc" class="er entityLabel">habits_days</text><rect height="22" width="36.484375" y="24" x="0" class="er attributeBoxOdd"/><text style="dominant-baseline: middle; font-size: 10.2px;" transform="translate(5,35)" y="0" x="0" id="text-entity-habitsdays-a0ede8fe-db72-4538-8f30-98324300b6cc-attr-1-type" class="er entityLabel">String</text><rect height="22" width="47.46875" y="24" x="36.484375" class="er attributeBoxOdd"/><text style="dominant-baseline: middle; font-size: 10.2px;" transform="translate(41.484375,35)" y="0" x="0" id="text-entity-habitsdays-a0ede8fe-db72-4538-8f30-98324300b6cc-attr-1-name" class="er entityLabel">id</text><rect height="22" width="21.68072509765625" y="24" x="83.953125" class="er attributeBoxOdd"/><text style="dominant-baseline: middle; font-size: 10.2px;" transform="translate(88.953125,35)" y="0" x="0" id="text-entity-habitsdays-a0ede8fe-db72-4538-8f30-98324300b6cc-attr-1-key" class="er entityLabel">PK</text><rect height="22" width="36.484375" y="46" x="0" class="er attributeBoxEven"/><text style="dominant-baseline: middle; font-size: 10.2px;" transform="translate(5,57)" y="0" x="0" id="text-entity-habitsdays-a0ede8fe-db72-4538-8f30-98324300b6cc-attr-2-type" class="er entityLabel">String</text><rect height="22" width="47.46875" y="46" x="36.484375" class="er attributeBoxEven"/><text style="dominant-baseline: middle; font-size: 10.2px;" transform="translate(41.484375,57)" y="0" x="0" id="text-entity-habitsdays-a0ede8fe-db72-4538-8f30-98324300b6cc-attr-2-name" class="er entityLabel">habit_id</text><rect height="22" width="21.68072509765625" y="46" x="83.953125" class="er attributeBoxEven"/><text style="dominant-baseline: middle; font-size: 10.2px;" transform="translate(88.953125,57)" y="0" x="0" id="text-entity-habitsdays-a0ede8fe-db72-4538-8f30-98324300b6cc-attr-2-key" class="er entityLabel"/><rect height="22" width="36.484375" y="68" x="0" class="er attributeBoxOdd"/><text style="dominant-baseline: middle; font-size: 10.2px;" transform="translate(5,79)" y="0" x="0" id="text-entity-habitsdays-a0ede8fe-db72-4538-8f30-98324300b6cc-attr-3-type" class="er entityLabel">String</text><rect height="22" width="47.46875" y="68" x="36.484375" class="er attributeBoxOdd"/><text style="dominant-baseline: middle; font-size: 10.2px;" transform="translate(41.484375,79)" y="0" x="0" id="text-entity-habitsdays-a0ede8fe-db72-4538-8f30-98324300b6cc-attr-3-name" class="er entityLabel">day_id</text><rect height="22" width="21.68072509765625" y="68" x="83.953125" class="er attributeBoxOdd"/><text style="dominant-baseline: middle; font-size: 10.2px;" transform="translate(88.953125,79)" y="0" x="0" id="text-entity-habitsdays-a0ede8fe-db72-4538-8f30-98324300b6cc-attr-3-key" class="er entityLabel"/></g><g transform="translate(20,20 )" id="entity-habitweekday-f58cce8e-ae97-4a69-9b19-5d6ce0d43397"><rect height="90" width="117.375" y="0" x="0" class="er entityBox"/><text style="dominant-baseline: middle; text-anchor: middle; font-size: 12px;" transform="translate(58.6875,12)" y="0" x="0" id="text-entity-habitweekday-f58cce8e-ae97-4a69-9b19-5d6ce0d43397" class="er entityLabel">habit_week_day</text><rect height="22" width="37.809549967447914" y="24" x="0" class="er attributeBoxOdd"/><text style="dominant-baseline: middle; font-size: 10.2px;" transform="translate(5,35)" y="0" x="0" id="text-entity-habitweekday-f58cce8e-ae97-4a69-9b19-5d6ce0d43397-attr-1-type" class="er entityLabel">String</text><rect height="22" width="56.559549967447914" y="24" x="37.809549967447914" class="er attributeBoxOdd"/><text style="dominant-baseline: middle; font-size: 10.2px;" transform="translate(42.809549967447914,35)" y="0" x="0" id="text-entity-habitweekday-f58cce8e-ae97-4a69-9b19-5d6ce0d43397-attr-1-name" class="er entityLabel">id</text><rect height="22" width="23.005900065104168" y="24" x="94.36909993489583" class="er attributeBoxOdd"/><text style="dominant-baseline: middle; font-size: 10.2px;" transform="translate(99.36909993489583,35)" y="0" x="0" id="text-entity-habitweekday-f58cce8e-ae97-4a69-9b19-5d6ce0d43397-attr-1-key" class="er entityLabel">PK</text><rect height="22" width="37.809549967447914" y="46" x="0" class="er attributeBoxEven"/><text style="dominant-baseline: middle; font-size: 10.2px;" transform="translate(5,57)" y="0" x="0" id="text-entity-habitweekday-f58cce8e-ae97-4a69-9b19-5d6ce0d43397-attr-2-type" class="er entityLabel">Int</text><rect height="22" width="56.559549967447914" y="46" x="37.809549967447914" class="er attributeBoxEven"/><text style="dominant-baseline: middle; font-size: 10.2px;" transform="translate(42.809549967447914,57)" y="0" x="0" id="text-entity-habitweekday-f58cce8e-ae97-4a69-9b19-5d6ce0d43397-attr-2-name" class="er entityLabel">week_day</text><rect height="22" width="23.005900065104168" y="46" x="94.36909993489583" class="er attributeBoxEven"/><text style="dominant-baseline: middle; font-size: 10.2px;" transform="translate(99.36909993489583,57)" y="0" x="0" id="text-entity-habitweekday-f58cce8e-ae97-4a69-9b19-5d6ce0d43397-attr-2-key" class="er entityLabel"/><rect height="22" width="37.809549967447914" y="68" x="0" class="er attributeBoxOdd"/><text style="dominant-baseline: middle; font-size: 10.2px;" transform="translate(5,79)" y="0" x="0" id="text-entity-habitweekday-f58cce8e-ae97-4a69-9b19-5d6ce0d43397-attr-3-type" class="er entityLabel">String</text><rect height="22" width="56.559549967447914" y="68" x="37.809549967447914" class="er attributeBoxOdd"/><text style="dominant-baseline: middle; font-size: 10.2px;" transform="translate(42.809549967447914,79)" y="0" x="0" id="text-entity-habitweekday-f58cce8e-ae97-4a69-9b19-5d6ce0d43397-attr-3-name" class="er entityLabel">habit_id</text><rect height="22" width="23.005900065104168" y="68" x="94.36909993489583" class="er attributeBoxOdd"/><text style="dominant-baseline: middle; font-size: 10.2px;" transform="translate(99.36909993489583,79)" y="0" x="0" id="text-entity-habitweekday-f58cce8e-ae97-4a69-9b19-5d6ce0d43397-attr-3-key" class="er entityLabel"/></g><rect height="14" width="27.96875" y="152.57762145996094" x="221.36325073242188" class="er relationshipLabelBox"/><text style="text-anchor: middle; dominant-baseline: middle; font-size: 12px;" y="159.57762145996094" x="235.34762573242188" id="rel1" class="er relationshipLabel">habit</text><rect height="14" width="18.990234375" y="156.30715942382812" x="381.50970458984375" class="er relationshipLabelBox"/><text style="text-anchor: middle; dominant-baseline: middle; font-size: 12px;" y="163.30715942382812" x="391.00482177734375" id="rel2" class="er relationshipLabel">day</text><rect height="14" width="27.96875" y="155.108642578125" x="69.6670913696289" class="er relationshipLabelBox"/><text style="text-anchor: middle; dominant-baseline: middle; font-size: 12px;" y="162.108642578125" x="83.6514663696289" id="rel3" class="er relationshipLabel">habit</text></svg>